# xmcd CD database file
#
# Track frame offsets:
#	150
#	15952
#	34780
#
# Disc length: 672 seconds
#
# Revision: 0
# Processed by: cddbd v1.5.1PL0 Copyright (c) Steve Scherf et al.
# Submitted via: CDex 1.50beta9
#
DISCID=14029e03
DTITLE=関ジャニ∞ - 浪花いろは節
DYEAR=2004
DGENRE=JPop
TTITLE0=浪花いろは節
TTITLE1=Cool Magic City
TTITLE2=浪花いろは節(オリジナル・カラオケ)
EXTD=YEAR: 2004
EXTT0=
EXTT1=
EXTT2=
PLAYORDER=
